<mxfile host="app.diagrams.net" agent="Mozilla/5.0 (Windows NT 10.0; Win64; x64) AppleWebKit/537.36 (KHTML, like Gecko) Chrome/130.0.0.0 Safari/537.36" version="24.8.3">
  <diagram name="Page-1" id="xHv3wYuzb9aDsO6GrTmO">
    <mxGraphModel dx="1035" dy="511" grid="1" gridSize="10" guides="1" tooltips="1" connect="1" arrows="1" fold="1" page="1" pageScale="1" pageWidth="827" pageHeight="1169" math="0" shadow="0">
      <root>
        <mxCell id="0" />
        <mxCell id="1" parent="0" />
        <mxCell id="jQkcxw809meIGdecResf-1" value="backend.AdminRole" style="swimlane;fontStyle=1;align=center;verticalAlign=top;childLayout=stackLayout;horizontal=1;startSize=26;horizontalStack=0;resizeParent=1;resizeParentMax=0;resizeLast=0;collapsible=1;marginBottom=0;whiteSpace=wrap;html=1;labelBackgroundColor=none;fillColor=#FAE5C7;strokeColor=#0F8B8D;fontColor=#143642;" vertex="1" parent="1">
          <mxGeometry x="22" y="20" width="300" height="130" as="geometry" />
        </mxCell>
        <mxCell id="jQkcxw809meIGdecResf-2" value="- database: backend.TrainerDatabase" style="text;strokeColor=none;fillColor=none;align=left;verticalAlign=top;spacingLeft=4;spacingRight=4;overflow=hidden;rotatable=0;points=[[0,0.5],[1,0.5]];portConstraint=eastwest;whiteSpace=wrap;html=1;labelBackgroundColor=none;fontColor=#143642;" vertex="1" parent="jQkcxw809meIGdecResf-1">
          <mxGeometry y="26" width="300" height="24" as="geometry" />
        </mxCell>
        <mxCell id="jQkcxw809meIGdecResf-3" value="" style="line;strokeWidth=1;fillColor=none;align=left;verticalAlign=middle;spacingTop=-1;spacingLeft=3;spacingRight=3;rotatable=0;labelPosition=right;points=[];portConstraint=eastwest;strokeColor=#0F8B8D;labelBackgroundColor=none;fontColor=#143642;" vertex="1" parent="jQkcxw809meIGdecResf-1">
          <mxGeometry y="50" width="300" height="8" as="geometry" />
        </mxCell>
        <mxCell id="jQkcxw809meIGdecResf-4" value="+ addtrainer (String, String, String, String, String): void&lt;div&gt;+ getListOfTrainers (): ArrayList &amp;lt;backend.Trainer&amp;gt;&lt;/div&gt;&lt;div&gt;+ removeTrainer (String): void&lt;/div&gt;&lt;div&gt;+ logout (): void&lt;/div&gt;" style="text;strokeColor=none;fillColor=none;align=left;verticalAlign=top;spacingLeft=4;spacingRight=4;overflow=hidden;rotatable=0;points=[[0,0.5],[1,0.5]];portConstraint=eastwest;whiteSpace=wrap;html=1;labelBackgroundColor=none;fontColor=#143642;" vertex="1" parent="jQkcxw809meIGdecResf-1">
          <mxGeometry y="58" width="300" height="72" as="geometry" />
        </mxCell>
        <mxCell id="jQkcxw809meIGdecResf-5" value="" style="endArrow=diamondThin;endFill=1;endSize=24;html=1;rounded=0;entryX=0.39;entryY=1.069;entryDx=0;entryDy=0;entryPerimeter=0;labelBackgroundColor=none;strokeColor=#A8201A;fontColor=default;exitX=0.471;exitY=0.083;exitDx=0;exitDy=0;exitPerimeter=0;" edge="1" parent="1" source="jQkcxw809meIGdecResf-74">
          <mxGeometry width="160" relative="1" as="geometry">
            <mxPoint x="153" y="222.08999999999992" as="sourcePoint" />
            <mxPoint x="153" y="154.96800000000007" as="targetPoint" />
            <Array as="points" />
          </mxGeometry>
        </mxCell>
        <mxCell id="jQkcxw809meIGdecResf-10" value="backend.Trainer" style="swimlane;fontStyle=1;align=center;verticalAlign=top;childLayout=stackLayout;horizontal=1;startSize=26;horizontalStack=0;resizeParent=1;resizeParentMax=0;resizeLast=0;collapsible=1;marginBottom=0;whiteSpace=wrap;html=1;labelBackgroundColor=none;fillColor=#FAE5C7;strokeColor=#0F8B8D;fontColor=#143642;" vertex="1" parent="1">
          <mxGeometry x="86" y="702.5" width="240" height="160" as="geometry" />
        </mxCell>
        <mxCell id="jQkcxw809meIGdecResf-11" value="- trainerID: String&lt;div&gt;- name: String&lt;/div&gt;&lt;div&gt;- email: String&lt;/div&gt;&lt;div&gt;- specialty: String&lt;/div&gt;&lt;div&gt;- phoneNumber: String&lt;/div&gt;" style="text;strokeColor=none;fillColor=none;align=left;verticalAlign=top;spacingLeft=4;spacingRight=4;overflow=hidden;rotatable=0;points=[[0,0.5],[1,0.5]];portConstraint=eastwest;whiteSpace=wrap;html=1;labelBackgroundColor=none;fontColor=#143642;" vertex="1" parent="jQkcxw809meIGdecResf-10">
          <mxGeometry y="26" width="240" height="84" as="geometry" />
        </mxCell>
        <mxCell id="jQkcxw809meIGdecResf-12" value="" style="line;strokeWidth=1;fillColor=none;align=left;verticalAlign=middle;spacingTop=-1;spacingLeft=3;spacingRight=3;rotatable=0;labelPosition=right;points=[];portConstraint=eastwest;strokeColor=#0F8B8D;labelBackgroundColor=none;fontColor=#143642;" vertex="1" parent="jQkcxw809meIGdecResf-10">
          <mxGeometry y="110" width="240" height="8" as="geometry" />
        </mxCell>
        <mxCell id="jQkcxw809meIGdecResf-13" value="+ lineRepresentation (): String&lt;div&gt;+ getSearchKey (): String&lt;/div&gt;" style="text;strokeColor=none;fillColor=none;align=left;verticalAlign=top;spacingLeft=4;spacingRight=4;overflow=hidden;rotatable=0;points=[[0,0.5],[1,0.5]];portConstraint=eastwest;whiteSpace=wrap;html=1;labelBackgroundColor=none;fontColor=#143642;" vertex="1" parent="jQkcxw809meIGdecResf-10">
          <mxGeometry y="118" width="240" height="42" as="geometry" />
        </mxCell>
        <mxCell id="jQkcxw809meIGdecResf-15" value="backend.TrainerRole" style="swimlane;fontStyle=1;align=center;verticalAlign=top;childLayout=stackLayout;horizontal=1;startSize=26;horizontalStack=0;resizeParent=1;resizeParentMax=0;resizeLast=0;collapsible=1;marginBottom=0;whiteSpace=wrap;html=1;labelBackgroundColor=none;fillColor=#FAE5C7;strokeColor=#0F8B8D;fontColor=#143642;" vertex="1" parent="1">
          <mxGeometry x="390" y="20" width="430" height="210" as="geometry" />
        </mxCell>
        <mxCell id="jQkcxw809meIGdecResf-16" value="- memberDatabase: backend.MemberDatabase&lt;div&gt;- classDatabase: C&lt;span style=&quot;background-color: initial;&quot;&gt;lassDatabase&lt;/span&gt;&lt;/div&gt;&lt;div&gt;&lt;span style=&quot;background-color: initial;&quot;&gt;- registrationDatabase:&amp;nbsp;&lt;/span&gt;&lt;span style=&quot;background-color: initial;&quot;&gt;backend.MemberClassRegistrationDatabase&lt;/span&gt;&lt;/div&gt;" style="text;strokeColor=none;fillColor=none;align=left;verticalAlign=top;spacingLeft=4;spacingRight=4;overflow=hidden;rotatable=0;points=[[0,0.5],[1,0.5]];portConstraint=eastwest;whiteSpace=wrap;html=1;labelBackgroundColor=none;fontColor=#143642;" vertex="1" parent="jQkcxw809meIGdecResf-15">
          <mxGeometry y="26" width="430" height="54" as="geometry" />
        </mxCell>
        <mxCell id="jQkcxw809meIGdecResf-17" value="" style="line;strokeWidth=1;fillColor=none;align=left;verticalAlign=middle;spacingTop=-1;spacingLeft=3;spacingRight=3;rotatable=0;labelPosition=right;points=[];portConstraint=eastwest;strokeColor=#0F8B8D;labelBackgroundColor=none;fontColor=#143642;" vertex="1" parent="jQkcxw809meIGdecResf-15">
          <mxGeometry y="80" width="430" height="8" as="geometry" />
        </mxCell>
        <mxCell id="jQkcxw809meIGdecResf-18" value="+ getListOfMembers: ArrayList &amp;lt;backend.Member&amp;gt;&lt;div&gt;+ getListOfClasses: ArrayList &amp;lt;Classes&amp;gt;&lt;/div&gt;&lt;div&gt;+ getListOfRegistrations: ArrayList &amp;lt;backend.MemberClassRegistrationDatabase&amp;gt;&lt;/div&gt;&lt;div&gt;+ registerMemberForClass (String, String, LocalDate): void&lt;/div&gt;&lt;div&gt;+ cancelRegistration (String, String): void&lt;/div&gt;&lt;div&gt;+ addMember&amp;nbsp;&lt;span style=&quot;background-color: initial;&quot;&gt;(String, String, String, String, String, String): void&lt;/span&gt;&lt;/div&gt;&lt;div&gt;+ addClass (String, String, String, int, int): void&lt;/div&gt;&lt;div&gt;+ logout (): void&lt;/div&gt;" style="text;strokeColor=none;fillColor=none;align=left;verticalAlign=top;spacingLeft=4;spacingRight=4;overflow=hidden;rotatable=0;points=[[0,0.5],[1,0.5]];portConstraint=eastwest;whiteSpace=wrap;html=1;labelBackgroundColor=none;fontColor=#143642;" vertex="1" parent="jQkcxw809meIGdecResf-15">
          <mxGeometry y="88" width="430" height="122" as="geometry" />
        </mxCell>
        <mxCell id="jQkcxw809meIGdecResf-20" value="backend.ClassDatabase" style="swimlane;fontStyle=1;align=center;verticalAlign=top;childLayout=stackLayout;horizontal=1;startSize=26;horizontalStack=0;resizeParent=1;resizeParentMax=0;resizeLast=0;collapsible=1;marginBottom=0;whiteSpace=wrap;html=1;labelBackgroundColor=none;fillColor=#FAE5C7;strokeColor=#0F8B8D;fontColor=#143642;" vertex="1" parent="1">
          <mxGeometry x="535" y="270" width="210" height="60" as="geometry" />
        </mxCell>
        <mxCell id="jQkcxw809meIGdecResf-22" value="" style="line;strokeWidth=1;fillColor=none;align=left;verticalAlign=middle;spacingTop=-1;spacingLeft=3;spacingRight=3;rotatable=0;labelPosition=right;points=[];portConstraint=eastwest;strokeColor=#0F8B8D;labelBackgroundColor=none;fontColor=#143642;" vertex="1" parent="jQkcxw809meIGdecResf-20">
          <mxGeometry y="26" width="210" height="8" as="geometry" />
        </mxCell>
        <mxCell id="jQkcxw809meIGdecResf-23" value="&lt;div&gt;&lt;div&gt;+ createRecordFrom (String): backend.Record&lt;/div&gt;&lt;/div&gt;" style="text;strokeColor=none;fillColor=none;align=left;verticalAlign=top;spacingLeft=4;spacingRight=4;overflow=hidden;rotatable=0;points=[[0,0.5],[1,0.5]];portConstraint=eastwest;whiteSpace=wrap;html=1;labelBackgroundColor=none;fontColor=#143642;" vertex="1" parent="jQkcxw809meIGdecResf-20">
          <mxGeometry y="34" width="210" height="26" as="geometry" />
        </mxCell>
        <mxCell id="jQkcxw809meIGdecResf-24" value="backend.Class" style="swimlane;fontStyle=1;align=center;verticalAlign=top;childLayout=stackLayout;horizontal=1;startSize=26;horizontalStack=0;resizeParent=1;resizeParentMax=0;resizeLast=0;collapsible=1;marginBottom=0;whiteSpace=wrap;html=1;labelBackgroundColor=none;fillColor=#FAE5C7;strokeColor=#0F8B8D;fontColor=#143642;" vertex="1" parent="1">
          <mxGeometry x="104" y="910" width="300" height="160" as="geometry" />
        </mxCell>
        <mxCell id="jQkcxw809meIGdecResf-25" value="&lt;div&gt;- classID: String&lt;/div&gt;- trainerID: String&lt;div&gt;- className: String&lt;/div&gt;&lt;div&gt;- duration: int&lt;/div&gt;&lt;div&gt;- availableSeats: int&lt;/div&gt;" style="text;strokeColor=none;fillColor=none;align=left;verticalAlign=top;spacingLeft=4;spacingRight=4;overflow=hidden;rotatable=0;points=[[0,0.5],[1,0.5]];portConstraint=eastwest;whiteSpace=wrap;html=1;labelBackgroundColor=none;fontColor=#143642;" vertex="1" parent="jQkcxw809meIGdecResf-24">
          <mxGeometry y="26" width="300" height="84" as="geometry" />
        </mxCell>
        <mxCell id="jQkcxw809meIGdecResf-26" value="" style="line;strokeWidth=1;fillColor=none;align=left;verticalAlign=middle;spacingTop=-1;spacingLeft=3;spacingRight=3;rotatable=0;labelPosition=right;points=[];portConstraint=eastwest;strokeColor=#0F8B8D;labelBackgroundColor=none;fontColor=#143642;" vertex="1" parent="jQkcxw809meIGdecResf-24">
          <mxGeometry y="110" width="300" height="8" as="geometry" />
        </mxCell>
        <mxCell id="jQkcxw809meIGdecResf-27" value="+ lineRepresentation (): String&lt;div&gt;+ getSearchKey (): String&lt;/div&gt;" style="text;strokeColor=none;fillColor=none;align=left;verticalAlign=top;spacingLeft=4;spacingRight=4;overflow=hidden;rotatable=0;points=[[0,0.5],[1,0.5]];portConstraint=eastwest;whiteSpace=wrap;html=1;labelBackgroundColor=none;fontColor=#143642;" vertex="1" parent="jQkcxw809meIGdecResf-24">
          <mxGeometry y="118" width="300" height="42" as="geometry" />
        </mxCell>
        <mxCell id="jQkcxw809meIGdecResf-28" value="" style="endArrow=diamondThin;endFill=1;endSize=24;html=1;rounded=0;strokeColor=#A8201A;fontColor=default;fillColor=#FAE5C7;entryX=0.491;entryY=1.016;entryDx=0;entryDy=0;entryPerimeter=0;exitX=1;exitY=0.5;exitDx=0;exitDy=0;labelBackgroundColor=none;" edge="1" parent="1" source="jQkcxw809meIGdecResf-66">
          <mxGeometry width="160" relative="1" as="geometry">
            <mxPoint x="771" y="282" as="sourcePoint" />
            <mxPoint x="772.1300000000001" y="230.002" as="targetPoint" />
            <Array as="points">
              <mxPoint x="772" y="380" />
            </Array>
          </mxGeometry>
        </mxCell>
        <mxCell id="jQkcxw809meIGdecResf-35" value="&lt;span style=&quot;text-align: left;&quot;&gt;backend.MemberClassRegistration&lt;/span&gt;" style="swimlane;fontStyle=1;align=center;verticalAlign=top;childLayout=stackLayout;horizontal=1;startSize=26;horizontalStack=0;resizeParent=1;resizeParentMax=0;resizeLast=0;collapsible=1;marginBottom=0;whiteSpace=wrap;html=1;labelBackgroundColor=none;fillColor=#FAE5C7;strokeColor=#0F8B8D;fontColor=#143642;" vertex="1" parent="1">
          <mxGeometry x="560" y="540" width="216.5" height="140" as="geometry" />
        </mxCell>
        <mxCell id="jQkcxw809meIGdecResf-36" value="&lt;div&gt;- classID: String&lt;/div&gt;&lt;div&gt;- memberID: String&lt;/div&gt;&lt;div&gt;- status: String&lt;/div&gt;&lt;div&gt;- registrationDate: LocalDate&lt;/div&gt;" style="text;strokeColor=none;fillColor=none;align=left;verticalAlign=top;spacingLeft=4;spacingRight=4;overflow=hidden;rotatable=0;points=[[0,0.5],[1,0.5]];portConstraint=eastwest;whiteSpace=wrap;html=1;labelBackgroundColor=none;fontColor=#143642;" vertex="1" parent="jQkcxw809meIGdecResf-35">
          <mxGeometry y="26" width="216.5" height="64" as="geometry" />
        </mxCell>
        <mxCell id="jQkcxw809meIGdecResf-37" value="" style="line;strokeWidth=1;fillColor=none;align=left;verticalAlign=middle;spacingTop=-1;spacingLeft=3;spacingRight=3;rotatable=0;labelPosition=right;points=[];portConstraint=eastwest;strokeColor=#0F8B8D;labelBackgroundColor=none;fontColor=#143642;" vertex="1" parent="jQkcxw809meIGdecResf-35">
          <mxGeometry y="90" width="216.5" height="8" as="geometry" />
        </mxCell>
        <mxCell id="jQkcxw809meIGdecResf-38" value="+ lineRepresentation (): String&lt;div&gt;+ getSearchKey (): String&lt;/div&gt;" style="text;strokeColor=none;fillColor=none;align=left;verticalAlign=top;spacingLeft=4;spacingRight=4;overflow=hidden;rotatable=0;points=[[0,0.5],[1,0.5]];portConstraint=eastwest;whiteSpace=wrap;html=1;labelBackgroundColor=none;fontColor=#143642;" vertex="1" parent="jQkcxw809meIGdecResf-35">
          <mxGeometry y="98" width="216.5" height="42" as="geometry" />
        </mxCell>
        <mxCell id="jQkcxw809meIGdecResf-44" value="backend.Member" style="swimlane;fontStyle=1;align=center;verticalAlign=top;childLayout=stackLayout;horizontal=1;startSize=26;horizontalStack=0;resizeParent=1;resizeParentMax=0;resizeLast=0;collapsible=1;marginBottom=0;whiteSpace=wrap;html=1;labelBackgroundColor=none;fillColor=#FAE5C7;strokeColor=#0F8B8D;fontColor=#143642;" vertex="1" parent="1">
          <mxGeometry x="510" y="702.5" width="266.5" height="175" as="geometry" />
        </mxCell>
        <mxCell id="jQkcxw809meIGdecResf-45" value="- memberID: String&lt;div&gt;- name: String&lt;/div&gt;&lt;div&gt;- email: String&lt;/div&gt;&lt;div&gt;- phoneNumber: String&lt;/div&gt;&lt;div&gt;- membershipType: String&lt;/div&gt;&lt;div&gt;- status: String&lt;/div&gt;" style="text;strokeColor=none;fillColor=none;align=left;verticalAlign=top;spacingLeft=4;spacingRight=4;overflow=hidden;rotatable=0;points=[[0,0.5],[1,0.5]];portConstraint=eastwest;whiteSpace=wrap;html=1;labelBackgroundColor=none;fontColor=#143642;" vertex="1" parent="jQkcxw809meIGdecResf-44">
          <mxGeometry y="26" width="266.5" height="99" as="geometry" />
        </mxCell>
        <mxCell id="jQkcxw809meIGdecResf-46" value="" style="line;strokeWidth=1;fillColor=none;align=left;verticalAlign=middle;spacingTop=-1;spacingLeft=3;spacingRight=3;rotatable=0;labelPosition=right;points=[];portConstraint=eastwest;strokeColor=#0F8B8D;labelBackgroundColor=none;fontColor=#143642;" vertex="1" parent="jQkcxw809meIGdecResf-44">
          <mxGeometry y="125" width="266.5" height="8" as="geometry" />
        </mxCell>
        <mxCell id="jQkcxw809meIGdecResf-47" value="+ lineRepresentation (): String&lt;div&gt;+ getSearchKey (): String&lt;/div&gt;" style="text;strokeColor=none;fillColor=none;align=left;verticalAlign=top;spacingLeft=4;spacingRight=4;overflow=hidden;rotatable=0;points=[[0,0.5],[1,0.5]];portConstraint=eastwest;whiteSpace=wrap;html=1;labelBackgroundColor=none;fontColor=#143642;" vertex="1" parent="jQkcxw809meIGdecResf-44">
          <mxGeometry y="133" width="266.5" height="42" as="geometry" />
        </mxCell>
        <mxCell id="jQkcxw809meIGdecResf-53" value="backend.DBO" style="swimlane;fontStyle=1;align=center;verticalAlign=top;childLayout=stackLayout;horizontal=1;startSize=26;horizontalStack=0;resizeParent=1;resizeParentMax=0;resizeLast=0;collapsible=1;marginBottom=0;whiteSpace=wrap;html=1;labelBackgroundColor=none;fillColor=#FAE5C7;strokeColor=#0F8B8D;fontColor=#143642;" vertex="1" parent="1">
          <mxGeometry x="104" y="310" width="240" height="190" as="geometry" />
        </mxCell>
        <mxCell id="jQkcxw809meIGdecResf-54" value="- records: ArrayList &amp;lt;backend.Record&amp;gt;&lt;div&gt;- filename: String&lt;/div&gt;" style="text;strokeColor=none;fillColor=none;align=left;verticalAlign=top;spacingLeft=4;spacingRight=4;overflow=hidden;rotatable=0;points=[[0,0.5],[1,0.5]];portConstraint=eastwest;whiteSpace=wrap;html=1;labelBackgroundColor=none;fontColor=#143642;" vertex="1" parent="jQkcxw809meIGdecResf-53">
          <mxGeometry y="26" width="240" height="34" as="geometry" />
        </mxCell>
        <mxCell id="jQkcxw809meIGdecResf-55" value="" style="line;strokeWidth=1;fillColor=none;align=left;verticalAlign=middle;spacingTop=-1;spacingLeft=3;spacingRight=3;rotatable=0;labelPosition=right;points=[];portConstraint=eastwest;strokeColor=#0F8B8D;labelBackgroundColor=none;fontColor=#143642;" vertex="1" parent="jQkcxw809meIGdecResf-53">
          <mxGeometry y="60" width="240" height="8" as="geometry" />
        </mxCell>
        <mxCell id="jQkcxw809meIGdecResf-56" value="+ insertRecord (backend.Record): void&lt;div&gt;+ deleteRecord (String): void&lt;br&gt;&lt;div&gt;+ createRecordFrom (String): backend.Record&lt;/div&gt;&lt;div&gt;+ returnAllRecords (): ArrayList &amp;lt;backend.Record&amp;gt;&lt;/div&gt;&lt;div&gt;+ contains (String): boolean&lt;/div&gt;&lt;div&gt;+ getRecord (String): backend.Record&lt;/div&gt;&lt;div&gt;+ readFromFile (): void&lt;/div&gt;&lt;/div&gt;&lt;div&gt;+ saveToFile (): void&lt;/div&gt;" style="text;strokeColor=none;fillColor=none;align=left;verticalAlign=top;spacingLeft=4;spacingRight=4;overflow=hidden;rotatable=0;points=[[0,0.5],[1,0.5]];portConstraint=eastwest;whiteSpace=wrap;html=1;labelBackgroundColor=none;fontColor=#143642;" vertex="1" parent="jQkcxw809meIGdecResf-53">
          <mxGeometry y="68" width="240" height="122" as="geometry" />
        </mxCell>
        <mxCell id="jQkcxw809meIGdecResf-61" value="&amp;lt;&amp;lt;interface&amp;gt;&amp;gt;&lt;div&gt;backend.Record&lt;/div&gt;" style="swimlane;fontStyle=1;align=center;verticalAlign=top;childLayout=stackLayout;horizontal=1;startSize=40;horizontalStack=0;resizeParent=1;resizeParentMax=0;resizeLast=0;collapsible=1;marginBottom=0;whiteSpace=wrap;html=1;labelBackgroundColor=none;fillColor=#FAE5C7;strokeColor=#0F8B8D;fontColor=#143642;" vertex="1" parent="1">
          <mxGeometry x="96" y="540" width="256" height="90" as="geometry" />
        </mxCell>
        <mxCell id="jQkcxw809meIGdecResf-63" value="" style="line;strokeWidth=1;fillColor=none;align=left;verticalAlign=middle;spacingTop=-1;spacingLeft=3;spacingRight=3;rotatable=0;labelPosition=right;points=[];portConstraint=eastwest;strokeColor=#0F8B8D;labelBackgroundColor=none;fontColor=#143642;" vertex="1" parent="jQkcxw809meIGdecResf-61">
          <mxGeometry y="40" width="256" height="8" as="geometry" />
        </mxCell>
        <mxCell id="jQkcxw809meIGdecResf-64" value="+ lineRepresentation (): String&lt;div&gt;+ getSearchKey (): String&lt;/div&gt;" style="text;strokeColor=none;fillColor=none;align=left;verticalAlign=top;spacingLeft=4;spacingRight=4;overflow=hidden;rotatable=0;points=[[0,0.5],[1,0.5]];portConstraint=eastwest;whiteSpace=wrap;html=1;labelBackgroundColor=none;fontColor=#143642;" vertex="1" parent="jQkcxw809meIGdecResf-61">
          <mxGeometry y="48" width="256" height="42" as="geometry" />
        </mxCell>
        <mxCell id="jQkcxw809meIGdecResf-66" value="backend.MemberDatabase" style="swimlane;fontStyle=1;align=center;verticalAlign=top;childLayout=stackLayout;horizontal=1;startSize=26;horizontalStack=0;resizeParent=1;resizeParentMax=0;resizeLast=0;collapsible=1;marginBottom=0;whiteSpace=wrap;html=1;labelBackgroundColor=none;fillColor=#FAE5C7;strokeColor=#0F8B8D;fontColor=#143642;" vertex="1" parent="1">
          <mxGeometry x="535" y="350" width="210" height="60" as="geometry" />
        </mxCell>
        <mxCell id="jQkcxw809meIGdecResf-67" value="" style="line;strokeWidth=1;fillColor=none;align=left;verticalAlign=middle;spacingTop=-1;spacingLeft=3;spacingRight=3;rotatable=0;labelPosition=right;points=[];portConstraint=eastwest;strokeColor=#0F8B8D;labelBackgroundColor=none;fontColor=#143642;" vertex="1" parent="jQkcxw809meIGdecResf-66">
          <mxGeometry y="26" width="210" height="8" as="geometry" />
        </mxCell>
        <mxCell id="jQkcxw809meIGdecResf-68" value="&lt;div&gt;&lt;div&gt;+ createRecordFrom (String): backend.Record&lt;/div&gt;&lt;/div&gt;" style="text;strokeColor=none;fillColor=none;align=left;verticalAlign=top;spacingLeft=4;spacingRight=4;overflow=hidden;rotatable=0;points=[[0,0.5],[1,0.5]];portConstraint=eastwest;whiteSpace=wrap;html=1;labelBackgroundColor=none;fontColor=#143642;" vertex="1" parent="jQkcxw809meIGdecResf-66">
          <mxGeometry y="34" width="210" height="26" as="geometry" />
        </mxCell>
        <mxCell id="jQkcxw809meIGdecResf-69" value="" style="endArrow=diamondThin;endFill=1;endSize=24;html=1;rounded=0;labelBackgroundColor=none;strokeColor=#A8201A;fontColor=default;entryX=0.581;entryY=1.033;entryDx=0;entryDy=0;entryPerimeter=0;exitX=0.5;exitY=0;exitDx=0;exitDy=0;" edge="1" parent="1" source="jQkcxw809meIGdecResf-20" target="jQkcxw809meIGdecResf-18">
          <mxGeometry width="160" relative="1" as="geometry">
            <mxPoint x="494.0400000000001" y="311" as="sourcePoint" />
            <mxPoint x="489.9999999999999" y="269.9960000000001" as="targetPoint" />
          </mxGeometry>
        </mxCell>
        <mxCell id="jQkcxw809meIGdecResf-70" value="" style="endArrow=diamondThin;endFill=1;endSize=24;html=1;rounded=0;strokeColor=#A8201A;fontColor=default;fillColor=#FAE5C7;entryX=0.491;entryY=1.016;entryDx=0;entryDy=0;entryPerimeter=0;exitX=1;exitY=0.5;exitDx=0;exitDy=0;labelBackgroundColor=none;" edge="1" parent="1" source="jQkcxw809meIGdecResf-71">
          <mxGeometry width="160" relative="1" as="geometry">
            <mxPoint x="798" y="282" as="sourcePoint" />
            <mxPoint x="799.1300000000001" y="230.002" as="targetPoint" />
            <Array as="points">
              <mxPoint x="800" y="460" />
            </Array>
          </mxGeometry>
        </mxCell>
        <mxCell id="jQkcxw809meIGdecResf-71" value="backend.MemberClassRegistrationDatabase" style="swimlane;fontStyle=1;align=center;verticalAlign=top;childLayout=stackLayout;horizontal=1;startSize=26;horizontalStack=0;resizeParent=1;resizeParentMax=0;resizeLast=0;collapsible=1;marginBottom=0;whiteSpace=wrap;html=1;labelBackgroundColor=none;fillColor=#FAE5C7;strokeColor=#0F8B8D;fontColor=#143642;" vertex="1" parent="1">
          <mxGeometry x="535" y="430" width="210" height="60" as="geometry" />
        </mxCell>
        <mxCell id="jQkcxw809meIGdecResf-72" value="" style="line;strokeWidth=1;fillColor=none;align=left;verticalAlign=middle;spacingTop=-1;spacingLeft=3;spacingRight=3;rotatable=0;labelPosition=right;points=[];portConstraint=eastwest;strokeColor=#0F8B8D;labelBackgroundColor=none;fontColor=#143642;" vertex="1" parent="jQkcxw809meIGdecResf-71">
          <mxGeometry y="26" width="210" height="8" as="geometry" />
        </mxCell>
        <mxCell id="jQkcxw809meIGdecResf-73" value="&lt;div&gt;&lt;div&gt;+ createRecordFrom (String): backend.Record&lt;/div&gt;&lt;/div&gt;" style="text;strokeColor=none;fillColor=none;align=left;verticalAlign=top;spacingLeft=4;spacingRight=4;overflow=hidden;rotatable=0;points=[[0,0.5],[1,0.5]];portConstraint=eastwest;whiteSpace=wrap;html=1;labelBackgroundColor=none;fontColor=#143642;" vertex="1" parent="jQkcxw809meIGdecResf-71">
          <mxGeometry y="34" width="210" height="26" as="geometry" />
        </mxCell>
        <mxCell id="jQkcxw809meIGdecResf-74" value="backend.TrainerDatabase" style="swimlane;fontStyle=1;align=center;verticalAlign=top;childLayout=stackLayout;horizontal=1;startSize=26;horizontalStack=0;resizeParent=1;resizeParentMax=0;resizeLast=0;collapsible=1;marginBottom=0;whiteSpace=wrap;html=1;labelBackgroundColor=none;fillColor=#FAE5C7;strokeColor=#0F8B8D;fontColor=#143642;" vertex="1" parent="1">
          <mxGeometry x="54" y="230" width="210" height="60" as="geometry" />
        </mxCell>
        <mxCell id="jQkcxw809meIGdecResf-75" value="" style="line;strokeWidth=1;fillColor=none;align=left;verticalAlign=middle;spacingTop=-1;spacingLeft=3;spacingRight=3;rotatable=0;labelPosition=right;points=[];portConstraint=eastwest;strokeColor=#0F8B8D;labelBackgroundColor=none;fontColor=#143642;" vertex="1" parent="jQkcxw809meIGdecResf-74">
          <mxGeometry y="26" width="210" height="8" as="geometry" />
        </mxCell>
        <mxCell id="jQkcxw809meIGdecResf-76" value="&lt;div&gt;&lt;div&gt;+ createRecordFrom (String): backend.Record&lt;/div&gt;&lt;/div&gt;" style="text;strokeColor=none;fillColor=none;align=left;verticalAlign=top;spacingLeft=4;spacingRight=4;overflow=hidden;rotatable=0;points=[[0,0.5],[1,0.5]];portConstraint=eastwest;whiteSpace=wrap;html=1;labelBackgroundColor=none;fontColor=#143642;" vertex="1" parent="jQkcxw809meIGdecResf-74">
          <mxGeometry y="34" width="210" height="26" as="geometry" />
        </mxCell>
        <mxCell id="jQkcxw809meIGdecResf-78" value="Extends" style="endArrow=block;endSize=16;endFill=0;html=1;rounded=0;strokeColor=#A8201A;fontColor=#143642;fillColor=#FAE5C7;entryX=-0.012;entryY=0.352;entryDx=0;entryDy=0;entryPerimeter=0;exitX=0.076;exitY=1.115;exitDx=0;exitDy=0;exitPerimeter=0;" edge="1" parent="1" source="jQkcxw809meIGdecResf-76" target="jQkcxw809meIGdecResf-56">
          <mxGeometry width="160" relative="1" as="geometry">
            <mxPoint x="74" y="292" as="sourcePoint" />
            <mxPoint x="104" y="370" as="targetPoint" />
            <Array as="points">
              <mxPoint x="71" y="420" />
            </Array>
          </mxGeometry>
        </mxCell>
        <mxCell id="jQkcxw809meIGdecResf-80" value="Extends" style="endArrow=block;endSize=16;endFill=0;html=1;rounded=0;strokeColor=#A8201A;fontColor=#143642;fillColor=#FAE5C7;exitX=0;exitY=0.5;exitDx=0;exitDy=0;entryX=0.996;entryY=0.016;entryDx=0;entryDy=0;entryPerimeter=0;" edge="1" parent="1" target="jQkcxw809meIGdecResf-56">
          <mxGeometry width="160" relative="1" as="geometry">
            <mxPoint x="537" y="380" as="sourcePoint" />
            <mxPoint x="350" y="380" as="targetPoint" />
          </mxGeometry>
        </mxCell>
        <mxCell id="jQkcxw809meIGdecResf-81" value="Extends" style="endArrow=block;endSize=16;endFill=0;html=1;rounded=0;strokeColor=#A8201A;fontColor=#143642;fillColor=#FAE5C7;exitX=0;exitY=0.5;exitDx=0;exitDy=0;entryX=0.999;entryY=0.678;entryDx=0;entryDy=0;entryPerimeter=0;" edge="1" parent="1" target="jQkcxw809meIGdecResf-56">
          <mxGeometry width="160" relative="1" as="geometry">
            <mxPoint x="537" y="460" as="sourcePoint" />
            <mxPoint x="350" y="460" as="targetPoint" />
          </mxGeometry>
        </mxCell>
        <mxCell id="jQkcxw809meIGdecResf-82" value="Extends" style="endArrow=block;endSize=16;endFill=0;html=1;rounded=0;strokeColor=#A8201A;fontColor=#143642;fillColor=#FAE5C7;exitX=0;exitY=0.25;exitDx=0;exitDy=0;entryX=0.75;entryY=0;entryDx=0;entryDy=0;" edge="1" parent="1" source="jQkcxw809meIGdecResf-20" target="jQkcxw809meIGdecResf-53">
          <mxGeometry width="160" relative="1" as="geometry">
            <mxPoint x="280" y="260" as="sourcePoint" />
            <mxPoint x="440" y="260" as="targetPoint" />
            <Array as="points">
              <mxPoint x="284" y="285" />
            </Array>
          </mxGeometry>
        </mxCell>
        <mxCell id="jQkcxw809meIGdecResf-83" value="" style="endArrow=diamondThin;endFill=1;endSize=24;html=1;rounded=0;strokeColor=#A8201A;fontColor=#143642;fillColor=#FAE5C7;exitX=0.5;exitY=0;exitDx=0;exitDy=0;entryX=0.5;entryY=1.008;entryDx=0;entryDy=0;entryPerimeter=0;" edge="1" parent="1" source="jQkcxw809meIGdecResf-61" target="jQkcxw809meIGdecResf-56">
          <mxGeometry width="160" relative="1" as="geometry">
            <mxPoint x="350" y="530" as="sourcePoint" />
            <mxPoint x="510" y="500" as="targetPoint" />
          </mxGeometry>
        </mxCell>
        <mxCell id="jQkcxw809meIGdecResf-88" value="Implements" style="endArrow=blockThin;endSize=16;endFill=0;html=1;rounded=0;strokeColor=#A8201A;fontColor=#143642;fillColor=#FAE5C7;exitX=0.5;exitY=0;exitDx=0;exitDy=0;dashed=1;entryX=0.499;entryY=1.06;entryDx=0;entryDy=0;entryPerimeter=0;" edge="1" parent="1" source="jQkcxw809meIGdecResf-10">
          <mxGeometry x="0.0052" y="-1" width="160" relative="1" as="geometry">
            <mxPoint x="589" y="900" as="sourcePoint" />
            <mxPoint x="205.74399999999991" y="632.52" as="targetPoint" />
            <mxPoint x="-1" y="1" as="offset" />
          </mxGeometry>
        </mxCell>
        <mxCell id="jQkcxw809meIGdecResf-90" value="Implements" style="endArrow=blockThin;endSize=16;endFill=0;html=1;rounded=0;strokeColor=#A8201A;fontColor=#143642;fillColor=#FAE5C7;exitX=0.854;exitY=0.001;exitDx=0;exitDy=0;dashed=1;exitPerimeter=0;" edge="1" parent="1" source="jQkcxw809meIGdecResf-24">
          <mxGeometry x="0.0052" y="-1" width="160" relative="1" as="geometry">
            <mxPoint x="380" y="830" as="sourcePoint" />
            <mxPoint x="330" y="640" as="targetPoint" />
            <mxPoint x="-1" y="1" as="offset" />
            <Array as="points">
              <mxPoint x="360" y="670" />
              <mxPoint x="330" y="670" />
            </Array>
          </mxGeometry>
        </mxCell>
        <mxCell id="jQkcxw809meIGdecResf-91" value="Implements" style="endArrow=blockThin;endSize=16;endFill=0;html=1;rounded=0;strokeColor=#A8201A;fontColor=#143642;fillColor=#FAE5C7;exitX=0;exitY=0.5;exitDx=0;exitDy=0;dashed=1;entryX=1.009;entryY=0.192;entryDx=0;entryDy=0;entryPerimeter=0;" edge="1" parent="1" source="jQkcxw809meIGdecResf-36" target="jQkcxw809meIGdecResf-64">
          <mxGeometry x="0.0052" y="-1" width="160" relative="1" as="geometry">
            <mxPoint x="244" y="723" as="sourcePoint" />
            <mxPoint x="244" y="653" as="targetPoint" />
            <mxPoint x="-1" y="1" as="offset" />
          </mxGeometry>
        </mxCell>
        <mxCell id="jQkcxw809meIGdecResf-92" value="Implements" style="endArrow=blockThin;endSize=16;endFill=0;html=1;rounded=0;strokeColor=#A8201A;fontColor=#143642;fillColor=#FAE5C7;exitX=0;exitY=0.5;exitDx=0;exitDy=0;dashed=1;entryX=0.996;entryY=0.836;entryDx=0;entryDy=0;entryPerimeter=0;" edge="1" parent="1" source="jQkcxw809meIGdecResf-45" target="jQkcxw809meIGdecResf-64">
          <mxGeometry x="0.0052" y="-1" width="160" relative="1" as="geometry">
            <mxPoint x="254" y="733" as="sourcePoint" />
            <mxPoint x="254" y="663" as="targetPoint" />
            <mxPoint x="-1" y="1" as="offset" />
            <Array as="points">
              <mxPoint x="410" y="778" />
              <mxPoint x="410" y="623" />
            </Array>
          </mxGeometry>
        </mxCell>
        <mxCell id="jQkcxw809meIGdecResf-93" value="Creates" style="endArrow=classicThin;endSize=16;endFill=1;html=1;rounded=0;strokeColor=#A8201A;fontColor=#143642;fillColor=#FAE5C7;exitX=0;exitY=0.5;exitDx=0;exitDy=0;dashed=1;entryX=0.92;entryY=0;entryDx=0;entryDy=0;entryPerimeter=0;" edge="1" parent="1" source="jQkcxw809meIGdecResf-23" target="jQkcxw809meIGdecResf-24">
          <mxGeometry x="0.0052" y="-1" width="160" relative="1" as="geometry">
            <mxPoint x="524.3700000000001" y="307.822" as="sourcePoint" />
            <mxPoint x="380" y="680" as="targetPoint" />
            <mxPoint x="-1" y="1" as="offset" />
            <Array as="points">
              <mxPoint x="380" y="317" />
            </Array>
          </mxGeometry>
        </mxCell>
        <mxCell id="jQkcxw809meIGdecResf-96" value="Creates" style="endArrow=classicThin;endSize=16;endFill=1;html=1;rounded=0;strokeColor=#A8201A;fontColor=#143642;fillColor=#FAE5C7;exitX=0;exitY=0.5;exitDx=0;exitDy=0;dashed=1;entryX=0;entryY=0.5;entryDx=0;entryDy=0;" edge="1" parent="1" source="jQkcxw809meIGdecResf-74" target="jQkcxw809meIGdecResf-11">
          <mxGeometry x="0.0052" y="-1" width="160" relative="1" as="geometry">
            <mxPoint x="228" y="680" as="sourcePoint" />
            <mxPoint x="22" y="678" as="targetPoint" />
            <mxPoint x="-1" y="1" as="offset" />
            <Array as="points">
              <mxPoint x="30" y="260" />
              <mxPoint x="30" y="771" />
            </Array>
          </mxGeometry>
        </mxCell>
        <mxCell id="jQkcxw809meIGdecResf-97" value="Creates" style="endArrow=classicThin;endSize=16;endFill=1;html=1;rounded=0;strokeColor=#A8201A;fontColor=#143642;fillColor=#FAE5C7;exitX=0;exitY=0.5;exitDx=0;exitDy=0;dashed=1;entryX=0.012;entryY=0.338;entryDx=0;entryDy=0;entryPerimeter=0;" edge="1" parent="1" source="jQkcxw809meIGdecResf-68" target="jQkcxw809meIGdecResf-45">
          <mxGeometry x="0.0052" y="-1" width="160" relative="1" as="geometry">
            <mxPoint x="560" y="680" as="sourcePoint" />
            <mxPoint x="354" y="678" as="targetPoint" />
            <mxPoint x="-1" y="1" as="offset" />
            <Array as="points">
              <mxPoint x="480" y="397" />
              <mxPoint x="480" y="760" />
            </Array>
          </mxGeometry>
        </mxCell>
        <mxCell id="jQkcxw809meIGdecResf-98" value="Creates" style="endArrow=classicThin;endSize=16;endFill=1;html=1;rounded=0;strokeColor=#A8201A;fontColor=#143642;fillColor=#FAE5C7;exitX=0.63;exitY=1.052;exitDx=0;exitDy=0;dashed=1;entryX=0.5;entryY=0;entryDx=0;entryDy=0;exitPerimeter=0;" edge="1" parent="1" source="jQkcxw809meIGdecResf-73" target="jQkcxw809meIGdecResf-35">
          <mxGeometry x="0.0052" y="-1" width="160" relative="1" as="geometry">
            <mxPoint x="676" y="952" as="sourcePoint" />
            <mxPoint x="470" y="950" as="targetPoint" />
            <mxPoint x="-1" y="1" as="offset" />
          </mxGeometry>
        </mxCell>
      </root>
    </mxGraphModel>
  </diagram>
</mxfile>
